<svg version="1.1" xmlns="http://www.w3.org/2000/svg" xmlns:xlink="http://www.w3.org/1999/xlink" x="0px" y="0px"
	 viewBox="0 0 800 800" enable-background="new 0 0 800 800" xml:space="preserve">
<g id="Layer_1">
</g>
<g id="Layer_2">
	<path fill="#00BCD4" d="M750,800H50c-27.5,0-50-22.5-50-50V50C0,22.5,22.5,0,50,0h700c27.5,0,50,22.5,50,50v700
		C800,777.5,777.5,800,750,800z"/>
</g>
<g id="Layer_3">
	<g>
		<path fill="#FFFFFF" d="M609.8,527.7c0-4.1-0.1-8.7-0.1-13.7h-60c0,5,0,9.8,0.1,14c0,5.4,0.1,11.3,0,16c-5.7,0.2-13.1,0-19.9,0
			h-0.1c-5.1,0-10.3,0.2-14.7,0.1c0-2.1,0-4.1,0-6.3V355h49v-60H235v60h49v181.3l0,2.8c0,1.7,0,3.3,0,5c-4.3,0.1-9.3-0.1-14.2-0.1
			h-0.1c-6.7,0-13.8,0.1-19.4-0.1c-0.1-4.4,0-9.5,0-14.5c0-4.5,0.1-9.5,0.1-15.5h-60c0,6,0,10.4-0.1,14.8
			c-0.2,26.5-0.4,45.8,14.1,60.4c14.8,15,33.8,14.7,65.3,14.7h0.1c27.2,0,43.7,0.2,57.4-10.7c16.8-13.4,16.8-32.2,16.8-54.1l0-184.2
			h25v165h60V355h26v182.9c0,22.4,0,41.4,16.6,55c13.9,11.3,30.5,11.1,58.1,11.1h0.1c31.6,0,50.7,0.1,65.6-14.9
			C610.2,574.3,610,555.8,609.8,527.7z"/>
		<circle fill="#FFFFFF" cx="400.7" cy="217.9" r="38.4"/>
	</g>
</g>
<g id="Layer_3_copy" display="none">
	<g display="inline">
		<line fill="none" stroke="#FFFFFF" stroke-width="60" stroke-miterlimit="10" x1="236" y1="337" x2="565" y2="337"/>
		<line fill="none" stroke="#FFFFFF" stroke-width="60" stroke-miterlimit="10" x1="400" y1="337" x2="400" y2="532"/>

			<rect x="370.5" y="205.6" transform="matrix(0.7071 0.7071 -0.7071 0.7071 284.3282 -214.3976)" fill="#FFFFFF" width="60.9" height="60.9"/>

			<rect x="214.8" y="315.9" transform="matrix(0.7071 0.7071 -0.7071 0.7071 307.4185 -68.1427)" fill="#FFFFFF" width="42.3" height="42.3"/>

			<rect x="543.8" y="315.9" transform="matrix(0.7071 0.7071 -0.7071 0.7071 403.7804 -300.7809)" fill="#FFFFFF" width="42.3" height="42.3"/>

			<rect x="378.8" y="510.9" transform="matrix(0.7071 0.7071 -0.7071 0.7071 493.3389 -126.9941)" fill="#FFFFFF" width="42.3" height="42.3"/>
		<g>
			<line fill="none" stroke="#FFFFFF" stroke-width="60" stroke-miterlimit="10" x1="315" y1="548" x2="315" y2="337"/>
			<polygon fill="#FFFFFF" points="197,557.9 167,538 197,508.1 226.9,538 			"/>
			<path fill="none" stroke="#FFFFFF" stroke-width="60" stroke-miterlimit="10" d="M315,548c0,32.6,0,59-59,59s-59-26.4-59-59"/>
			<line fill="none" stroke="#FFFFFF" stroke-width="60" stroke-miterlimit="10" x1="197" y1="538" x2="197" y2="552"/>
		</g>
		<g>
			<line fill="none" stroke="#FFFFFF" stroke-width="60" stroke-miterlimit="10" x1="485" y1="548" x2="485" y2="337"/>
			<polygon fill="#FFFFFF" points="603,557.9 633,538 603,508.1 573.1,538 			"/>
			<path fill="none" stroke="#FFFFFF" stroke-width="60" stroke-miterlimit="10" d="M485,548c0,32.6,0.1,59,59,59s59-26.4,59-59"/>
			<line fill="none" stroke="#FFFFFF" stroke-width="60" stroke-miterlimit="10" x1="603" y1="538" x2="603" y2="552"/>
		</g>
	</g>
</g>
<g id="Layer_4" display="none">
	<g display="inline">
		<path fill="none" stroke="#FFFFFF" stroke-width="30" stroke-linecap="round" stroke-miterlimit="10" d="M313.8,491
			c-22.1-22.1-35.7-52.5-35.7-86.2c0-67.3,54.6-121.9,121.9-121.9s121.9,54.6,121.9,121.9c0,33.7-13.6,64.1-35.7,86.2"/>
		<path fill="none" stroke="#FFFFFF" stroke-width="30" stroke-linecap="round" stroke-miterlimit="10" d="M529.3,534.1
			c33.1-33.1,53.5-78.8,53.5-129.3C582.8,303.8,501,222,400,222s-182.8,81.8-182.8,182.8c0,50.5,20.5,96.2,53.5,129.3"/>
		<path fill="none" stroke="#FFFFFF" stroke-width="30" stroke-linecap="round" stroke-miterlimit="10" d="M356.9,447.9
			c-11-11-17.8-26.3-17.8-43.1c0-33.7,27.3-60.9,60.9-60.9s60.9,27.3,60.9,60.9c0,16.8-6.8,32.1-17.8,43.1"/>
		<path fill="none" stroke="#FFFFFF" stroke-width="30" stroke-linecap="round" stroke-miterlimit="10" d="M486.2,491
			c22.1-22.1,35.7-52.5,35.7-86.2c0-67.3-54.6-121.9-121.9-121.9s-121.9,54.6-121.9,121.9c0,33.7,13.6,64.1,35.7,86.2"/>
	</g>
</g>
<g id="Layer_5" display="none">
	<g display="inline">
		<polyline fill="none" stroke="#FFFFFF" stroke-width="30" stroke-linecap="round" stroke-miterlimit="10" points="330,466
			330,383.9 400.4,333.1 471,384 471,466 		"/>
		<polyline fill="none" stroke="#FFFFFF" stroke-width="30" stroke-linecap="round" stroke-miterlimit="10" points="261,533
			261,368.3 400,266.8 539,368.3 539,533 		"/>
		<polyline fill="none" stroke="#FFFFFF" stroke-width="30" stroke-linecap="round" stroke-miterlimit="10" points="190,600
			190,352.9 400,200.2 610,353 610,600 		"/>
	</g>
</g>
<g id="Layer_6" display="none">
	<g display="inline">
		<polyline fill="none" stroke="#FFFFFF" stroke-width="30" stroke-linecap="round" stroke-miterlimit="10" points="330,466
			330,383.9 400.4,333.1 471,384 471,466 		"/>
		<polyline fill="none" stroke="#FFFFFF" stroke-width="30" stroke-linecap="round" stroke-miterlimit="10" points="261,533
			261,368.3 400,266.8 539,368.3 539,533 		"/>
		<polyline fill="none" stroke="#FFFFFF" stroke-width="30" stroke-linecap="round" stroke-miterlimit="10" points="190,600
			190,352.9 400,200.2 610,353 610,600 		"/>

			<line fill="none" stroke="#FFFFFF" stroke-width="30" stroke-linecap="round" stroke-miterlimit="10" x1="471" y1="466" x2="400" y2="466"/>
	</g>
</g>
<g id="Layer_7" display="none">
	<g display="inline">
		<g>
			<path fill="#FFFFFF" d="M431,391.3c0,0-0.5,1.2-1.4,3.5c-0.9,2.3-2.3,5.7-4.2,10.1c-3.7,8.7-9.1,21.5-16,37.7
				c-3.4,8.1-7,17-10.9,26.6c-3.8,9.6-7.7,20-11.3,30.9c-1.8,5.5-3.5,11-4.9,16.7c-1.5,5.6-2.7,11.3-3.6,16.8
				c-0.8,5.5-1.2,10.9-0.9,15.3c0.1,2.2,0.4,4.2,0.9,5.7c0.4,1.6,0.9,2.7,1.4,3.4c0.5,0.7,0.8,1.1,1.4,1.5c0.5,0.4,1.2,0.9,2.4,1.5
				c2.3,1.2,6.7,2.6,12.3,3.3c2.8,0.4,5.8,0.7,9.1,0.8l2.5,0.1l1.3,0c0.6,0-3.9,0.1-1.8,0l0.4,0l0.8,0c1.1-0.1,2.1-0.1,3.2-0.2
				c0.6,0,0.9-0.1,1.3-0.1l1.2-0.1c1.6-0.1,3.4-0.3,5.2-0.5c1.8-0.2,3.6-0.5,5.4-0.7c3.6-0.6,7.2-1.2,10.8-2
				c14.4-3.2,28.8-8.1,42.4-15.3c13.7-7.1,26.8-16.4,38.5-27.4c11.7-11.1,22.2-24.1,30.6-38.5c8.5-14.4,14.8-30.3,18.8-47.1
				c1-4.2,1.8-8.4,2.5-12.7c0.7-4.3,1.2-8.6,1.6-12.9c0.4-4.3,0.6-8.7,0.6-13.1l0-1.6c0,0,0-0.6,0-0.1l0-0.5l0-0.9l-0.1-3.8
				c-0.1-2-0.1-4-0.3-6.3c-1.2-17.6-5.1-35.2-11.7-51.8c-6.6-16.7-15.9-32.4-27.4-46.4c-11.5-14-25.2-26.2-40.4-36.1
				c-7.6-4.9-15.6-9.3-23.8-13c-4.1-1.8-8.3-3.5-12.5-5c-4.2-1.5-8.5-2.8-12.9-4c-4.3-1.2-8.7-2.2-13.1-3c-4.4-0.8-8.8-1.5-13.2-2
				c-4.4-0.5-8.9-0.9-13.3-1.1c-2.2-0.1-4.4-0.2-6.6-0.2l-3.2,0l-3.6,0.1l-0.9,0l-0.8,0l-1.6,0.1c-1.1,0.1-2.1,0.1-3.2,0.2l-3.3,0.2
				l-3.3,0.3c-4.4,0.4-8.7,1-13,1.8c-8.6,1.5-17,3.6-25.1,6.3c-16.3,5.3-31.5,12.9-45.2,22c-13.7,9.1-25.8,19.9-36.2,31.7
				c-10.3,11.7-19,24.4-25.8,37.3c-3.4,6.5-6.4,13-8.9,19.6c-2.5,6.6-4.6,13.1-6.4,19.6c-3.5,13-5.4,25.7-6.1,37.8
				c-0.2,3-0.3,6-0.3,8.9c0,0.7,0,1.5,0,2.2l0,1.1l0,0.5l0,0.6c0,1.5,0.1,2.9,0.1,4.4c0,0.7,0,1.4,0.1,2.2c0,0.7,0.1,1.4,0.1,2.1
				c0.1,1.4,0.1,2.7,0.2,4.1c0.2,2.7,0.4,5.4,0.7,8c1.2,10.5,3.1,20,5.4,28.5c2.3,8.5,4.9,15.9,7.5,22.3c2.6,6.4,5.1,11.7,7.2,15.9
				c2.2,4.2,3.9,7.4,5.2,9.5c1.2,2.1,1.9,3.2,1.9,3.2c0,0,0,0.1,0,0.1c0,0-0.1,0-0.1,0c0,0-0.7-1-2.2-3c-1.5-2-3.5-5-6.1-9.1
				c-1.2-2-2.7-4.3-4.1-6.9c-0.7-1.3-1.5-2.6-2.3-4c-0.7-1.4-1.5-2.9-2.3-4.5c-3.1-6.2-6.4-13.6-9.4-22.1c-3-8.5-5.8-18.1-8-28.9
				c-0.5-2.7-1-5.4-1.5-8.2c-0.2-1.4-0.4-2.9-0.6-4.3c-0.1-0.7-0.2-1.5-0.3-2.2c-0.1-0.7-0.2-1.4-0.2-2.2c-0.1-1.4-0.3-2.9-0.4-4.4
				l-0.1-0.6l0-0.6l-0.1-1.1c-0.1-0.8-0.1-1.5-0.2-2.3c-0.2-3.1-0.3-6.2-0.4-9.4c-0.2-12.7,0.8-26.3,3.4-40.5
				c2.6-14.1,7-28.8,13.4-43.3c6.4-14.6,14.7-29.1,25.3-42.7c10.5-13.7,23.2-26.6,37.9-37.9c14.6-11.3,31.3-21,49.6-28.2
				c9.1-3.6,18.6-6.7,28.4-9c4.9-1.2,9.8-2.2,14.8-3l3.8-0.6l3.8-0.5c1.2-0.2,2.6-0.3,3.9-0.5l2-0.2l1-0.1l0.9-0.1l3.6-0.3l4-0.3
				c2.6-0.2,5.2-0.2,7.7-0.3c5.2-0.1,10.4,0,15.6,0.2c5.2,0.3,10.5,0.7,15.7,1.4c5.2,0.7,10.5,1.5,15.7,2.6
				c20.9,4.2,41.5,11.8,60.8,22.3c19.2,10.6,37.1,24.2,52.6,40.4c15.5,16.2,28.7,35,38.7,55.5c10,20.5,16.7,42.7,19.9,65.4
				c0.4,2.8,0.7,5.8,1.1,8.8l0.4,3.8l0.1,0.9l0,0.5l0.1,0.9l0.1,2.1c0.4,5.7,0.5,11.4,0.4,17.1c-0.1,5.7-0.4,11.4-0.9,17.1
				c-0.5,5.7-1.3,11.4-2.3,17c-3.9,22.5-11.4,44.3-21.8,64.3c-10.5,19.9-23.9,38.1-39.4,53.7c-15.5,15.6-33.1,28.6-51.8,38.7
				c-18.7,10.1-38.5,17.3-58.3,21.6c-4.9,1.1-9.9,2-14.8,2.7c-2.5,0.3-4.9,0.7-7.4,1c-2.5,0.3-4.9,0.5-7.5,0.7l-2,0.2
				c-0.6,0-1.4,0.1-1.8,0.1c-1.1,0.1-2.1,0.1-3.2,0.2l-0.8,0l-0.4,0c1.8,0-2.9,0.1-2.6,0.1l-1.9,0c-1.3,0-2.5-0.1-3.8-0.2
				c-5.1-0.3-10.3-0.7-15.7-1.6c-5.3-0.9-10.8-2.1-16.5-3.9c-5.6-1.8-11.4-4.3-17.1-7.7c-5.7-3.4-11.3-7.8-16.1-13.1
				c-4.8-5.3-8.7-11.4-11.4-17.6c-2.7-6.2-4.4-12.4-5.3-18.2c-0.9-5.8-1.1-11.2-1-16.3c0.1-5.1,0.7-9.8,1.4-14.3
				c0.7-4.5,1.6-8.7,2.7-12.8c2.1-8.1,4.6-15.4,7.3-22.3c2.7-6.9,5.6-13.2,8.5-19.2c5.9-12,11.9-22.6,17.8-32.1
				c5.8-9.5,11.6-17.9,16.8-25.4c10.6-15,19.5-26.1,25.7-33.6c3.1-3.8,5.5-6.6,7.2-8.5c1.7-1.9,2.5-2.8,2.5-2.8
				c4.8-5.4,13-5.9,18.4-1.1C431.8,380.5,433,386.4,431,391.3L431,391.3z"/>
		</g>
		<circle fill="#FFFFFF" cx="454.1" cy="334.1" r="28.1"/>
	</g>
</g>
</svg>
